<?xml version="1.0" encoding="UTF-8" standalone="no"?>
<!-- Created with Inkscape (http://www.inkscape.org/) -->

<svg
   xmlns:dc="http://purl.org/dc/elements/1.1/"
   xmlns:cc="http://creativecommons.org/ns#"
   xmlns:rdf="http://www.w3.org/1999/02/22-rdf-syntax-ns#"
   xmlns:svg="http://www.w3.org/2000/svg"
   xmlns="http://www.w3.org/2000/svg"
   xmlns:sodipodi="http://sodipodi.sourceforge.net/DTD/sodipodi-0.dtd"
   xmlns:inkscape="http://www.inkscape.org/namespaces/inkscape"
   width="256px"
   height="256px"
   viewBox="0 0 256 256"
   version="1.1"
   id="SVGRoot"
   sodipodi:docname="DogTongueEarsUp.svg"
   inkscape:version="0.92.4 (5da689c313, 2019-01-14)">
  <defs
     id="defs3737" />
  <sodipodi:namedview
     id="base"
     pagecolor="#ffffff"
     bordercolor="#666666"
     borderopacity="1.0"
     inkscape:pageopacity="0.0"
     inkscape:pageshadow="2"
     inkscape:zoom="2"
     inkscape:cx="94.059667"
     inkscape:cy="154.70615"
     inkscape:document-units="px"
     inkscape:current-layer="g4633"
     showgrid="true"
     inkscape:window-width="1920"
     inkscape:window-height="1017"
     inkscape:window-x="-8"
     inkscape:window-y="-8"
     inkscape:window-maximized="1"
     inkscape:grid-bbox="true"
     objecttolerance="10000"
     inkscape:lockguides="true">
    <inkscape:grid
       type="xygrid"
       id="grid3785" />
  </sodipodi:namedview>
  <metadata
     id="metadata3740">
    <rdf:RDF>
      <cc:Work
         rdf:about="">
        <dc:format>image/svg+xml</dc:format>
        <dc:type
           rdf:resource="http://purl.org/dc/dcmitype/StillImage" />
        <dc:title></dc:title>
      </cc:Work>
    </rdf:RDF>
  </metadata>
  <g
     inkscape:groupmode="layer"
     id="layer1"
     inkscape:label="Tongue">
    <path
       style="fill:#ff5555;stroke:#ff5555;stroke-width:0.68904066;stroke-linecap:butt;stroke-linejoin:miter;stroke-miterlimit:4;stroke-dasharray:none;stroke-opacity:1"
       d="m 112.48358,190.82322 c 0,0 0,18.97595 12.52338,18.97595 12.52337,0 12.52337,-18.97595 12.52337,-18.97595 0,0 -12.52337,3.79518 -25.04675,0 z"
       id="path864"
       inkscape:connector-curvature="0" />
  </g>
  <g
     inkscape:label="BottomRight"
     id="g4633"
     inkscape:groupmode="layer"
     style="display:inline">
    <path
       style="fill:none;stroke:#000000;stroke-width:6.5999999;stroke-linecap:butt;stroke-linejoin:miter;stroke-miterlimit:4;stroke-dasharray:none;stroke-opacity:1"
       d="m 175,111 c 0,0 15,80 -49.6284,80.3124"
       id="path4629"
       inkscape:connector-curvature="0"
       sodipodi:nodetypes="cc" />
  </g>
  <g
     style="display:inline"
     inkscape:groupmode="layer"
     id="g4728"
     inkscape:label="BottomLeft">
    <path
       sodipodi:nodetypes="ccsc"
       inkscape:connector-curvature="0"
       id="path4726"
       d="M 125.00304,191.3124 C 60.37464,191 75.37464,111 75.37464,111 c 0,0 10.68602,-34.797204 50.68602,-34.797204 C 166.06066,76.202796 175,111 175,111"
       style="fill:none;stroke:#000000;stroke-width:6.5999999;stroke-linecap:butt;stroke-linejoin:miter;stroke-miterlimit:4;stroke-dasharray:none;stroke-opacity:1" />
  </g>
  <g
     inkscape:groupmode="layer"
     id="layer5"
     inkscape:label="Face"
     style="display:inline">
    <path
       style="fill:none;stroke:#000000;stroke-width:4.42741489;stroke-linecap:butt;stroke-linejoin:miter;stroke-miterlimit:4;stroke-dasharray:none;stroke-opacity:1"
       d="m 125,191 v -25 0"
       id="path4655"
       inkscape:connector-curvature="0" />
    <circle
       style="fill:#000000;fill-opacity:1;stroke:#000000;stroke-width:3.29826927;stroke-miterlimit:4;stroke-dasharray:none;stroke-opacity:1"
       id="path4657"
       cx="125.21858"
       cy="-164.52687"
       inkscape:transform-center-x="0.31670138"
       inkscape:transform-center-y="0.95008941"
       r="6.3315225"
       transform="scale(1,-1)" />
    <circle
       style="fill:#000000;fill-opacity:1;stroke:#000000;stroke-width:3.29826927;stroke-miterlimit:4;stroke-dasharray:none;stroke-opacity:1"
       id="path4657-2"
       cx="95.236809"
       cy="131.44627"
       inkscape:transform-center-x="0.31670138"
       inkscape:transform-center-y="-0.95008941"
       r="6.3315225" />
    <circle
       style="fill:#000000;fill-opacity:1;stroke:#000000;stroke-width:3.29826927;stroke-miterlimit:4;stroke-dasharray:none;stroke-opacity:1"
       id="path4657-6"
       cx="155.29373"
       cy="131.33243"
       inkscape:transform-center-x="0.31670138"
       inkscape:transform-center-y="-0.95008941"
       r="6.3315225" />
    <path
       style="fill:none;stroke:#000000;stroke-width:1.32000005;stroke-linecap:butt;stroke-linejoin:miter;stroke-miterlimit:4;stroke-dasharray:none;stroke-opacity:1"
       d="M 125,193 Z"
       id="path4700"
       inkscape:connector-curvature="0" />
    <path
       style="fill:none;stroke:#000000;stroke-width:1.32000005;stroke-linecap:butt;stroke-linejoin:miter;stroke-miterlimit:4;stroke-dasharray:none;stroke-opacity:1"
       d="m 124,191 c 0.008,0.007 0.0156,0.013 0.0234,0.0195 0.003,0 0.006,-0.001 0.008,0 0.002,0.002 0.002,0.006 0.004,0.008 0.002,0.002 0.005,0.003 0.008,0.004 10e-4,0.004 0.002,0.008 0.004,0.0117 0.003,0.005 0.008,0.008 0.0117,0.0117 0.005,0.005 0.0104,0.0104 0.0156,0.0156 0.004,0.004 0.008,0.008 0.0117,0.0117 0.005,0.005 0.01,0.0112 0.0156,0.0156 0.005,0.003 0.0112,0.004 0.0156,0.008 0.004,0.003 0.004,0.009 0.008,0.0117 0.0389,0.0341 0.008,0.001 0.043,0.0234 0.005,0.003 0.008,0.008 0.0117,0.0117 0.0128,0.0109 0.015,0.0107 0.0273,0.0195 0.005,0.004 0.01,0.008 0.0156,0.0117 0.004,0.002 0.008,0.002 0.0117,0.004 0.008,0.005 0.0155,0.0106 0.0234,0.0156 0.006,0.004 0.0129,0.008 0.0195,0.0117 0.005,0.003 0.0105,0.005 0.0156,0.008 0.007,0.004 0.0127,0.008 0.0195,0.0117 0.009,0.004 0.0185,0.007 0.0273,0.0117 0.007,0.003 0.0126,0.009 0.0195,0.0117 0.005,0.002 0.0105,0.002 0.0156,0.004 0.007,0.002 0.013,0.005 0.0195,0.008 0.0104,0.004 0.021,0.007 0.0312,0.0117 0.008,0.003 0.0154,0.008 0.0234,0.0117 0.008,0.003 0.0157,0.005 0.0234,0.008 0.0744,0.0266 -0.009,-0.001 0.0586,0.0195 0.008,0.002 0.0155,0.006 0.0234,0.008 0.008,0.002 0.0157,0.002 0.0234,0.004 0.10328,0.0221 -0.0268,-0.003 0.0547,0.0117 0.0262,0.005 0.0514,0.0136 0.0781,0.0156 0.013,0.001 0.0261,-0.001 0.0391,0 0.0105,8.8e-4 0.0208,0.003 0.0312,0.004 0.006,5e-4 0.013,0 0.0195,0 0.008,0 0.0156,0 0.0234,0 0.0221,0 0.0443,0 0.0664,0 0.0286,0 0.0573,0 0.0859,0 0.013,0 0.0261,0.001 0.0391,0 0.005,-5.3e-4 0.0104,-0.003 0.0156,-0.004 0.006,-0.001 0.0131,-0.002 0.0195,-0.004 0.0481,-0.012 -0.0407,0.007 0.0312,-0.008 0.007,-0.001 0.013,-0.002 0.0195,-0.004 0.005,-0.001 0.0104,-0.003 0.0156,-0.004 0.0101,-0.008 0.024,-0.002 0.0352,-0.004 0.004,-6.8e-4 0.008,-0.003 0.0117,-0.004 0.003,-5.1e-4 0.005,4.3e-4 0.008,0 0.0583,-0.01 -0.0191,0.001 0.0273,-0.008 0.003,-5.1e-4 0.005,4.3e-4 0.008,0 0.0583,-0.01 -0.0191,0.001 0.0273,-0.008 0.003,-5.1e-4 0.005,6.3e-4 0.008,0 0.003,-7.1e-4 0.005,-0.003 0.008,-0.004 0.006,-0.001 0.013,0 0.0195,0 0.0117,0 0.0234,0 0.0352,0 0.0143,0 0.0286,0 0.043,0 0.002,0 0.0223,-5.8e-4 0.0234,0 0.002,8.2e-4 0.002,0.003 0.004,0.004 0.002,0.001 0.0132,-10e-4 0.0156,0 0.002,8.2e-4 0.002,0.003 0.004,0.004 0.003,0.001 0.017,-0.001 0.0195,0 0.0179,0.009 -0.0166,-0.002 0.0117,0.008 0.001,4.2e-4 0.003,0 0.004,0 0.003,0 0.005,0 0.008,0 0.003,0 0.005,-6.3e-4 0.008,0 0.007,-0.002 0.007,0.006 0.0117,0.008 0.004,0.001 0.008,0 0.0117,0 0.009,0 0.0182,0 0.0273,0 0.0273,0 0.0547,0 0.082,0 0.0104,0 0.0208,0 0.0312,0 0.003,0 0.0166,-7.5e-4 0.0195,0 0.003,7e-4 0.005,0.003 0.008,0.004 0.006,0.001 0.0132,-10e-4 0.0195,0 0.004,8.1e-4 0.008,0.003 0.0117,0.004 0.003,5.1e-4 0.005,-6.3e-4 0.008,0 0.003,7.1e-4 0.005,0.003 0.008,0.004 0.001,4.1e-4 0.003,0 0.004,0 0.008,0 0.0156,0 0.0234,0 0.003,0 0.005,-6.4e-4 0.008,0 0.003,7e-4 0.005,0.003 0.008,0.004 0.0393,0.0157 -0.008,-0.003 0.0195,0.004 0.003,7e-4 0.005,0.003 0.008,0.004 0.003,6.4e-4 0.005,0 0.008,0 0.008,0 0.0156,0 0.0234,0 0.003,0 0.005,-8.2e-4 0.008,0 0.002,5.9e-4 0.002,0.003 0.004,0.004 10e-4,5.8e-4 0.003,-2.5e-4 0.004,0 0.005,0.001 0.0103,0.003 0.0156,0.004 0.003,4.3e-4 0.005,0 0.008,0 0.009,0 0.0182,0 0.0273,0 0.003,0 0.005,-6.3e-4 0.008,0 0.003,7e-4 0.005,0.003 0.008,0.004 0.003,6.4e-4 0.005,0 0.008,0 0.007,0 0.013,0 0.0195,0 0.0195,0 0.0391,0 0.0586,0 0.0156,0 0.0312,0 0.0469,0 0.005,0 0.0211,-7.7e-4 0.0234,0 0.002,5.9e-4 0.002,0.003 0.004,0.004 0.002,0.001 0.0132,-10e-4 0.0156,0 0.003,0.002 0.005,0.006 0.008,0.008 0.001,5.8e-4 0.003,-9.2e-4 0.004,0 9.2e-4,9.2e-4 -9.2e-4,0.003 0,0.004 9.2e-4,9.2e-4 0.003,-5.8e-4 0.004,0 0.004,0.002 0.007,0.009 0.008,0.0117 7.5e-4,0.002 0,0.0207 0,0.0234 0,0.007 0,0.013 0,0.0195 0,0.003 8.2e-4,0.005 0,0.008 -9.2e-4,0.003 -0.003,0.005 -0.004,0.008 -8.2e-4,0.002 0.001,0.005 0,0.008 -8.2e-4,0.002 -0.003,0.002 -0.004,0.004 -0.004,0.007 -0.004,0.0164 -0.008,0.0234 -0.002,0.003 -0.006,0.005 -0.008,0.008 -0.002,0.002 -0.002,0.005 -0.004,0.008 -0.002,0.003 -0.006,0.005 -0.008,0.008 -0.002,0.002 -0.002,0.006 -0.004,0.008 -0.002,0.002 -0.006,0.002 -0.008,0.004 -0.0154,0.0154 -1.6e-4,0.008 -0.0156,0.0195 -0.002,0.002 -0.006,0.002 -0.008,0.004 -0.003,0.003 -0.005,0.008 -0.008,0.0117 -0.0155,0.0193 7.7e-4,-0.005 -0.0195,0.0156 -0.002,0.002 -0.002,0.006 -0.004,0.008 -0.003,0.003 -0.008,0.005 -0.0117,0.008 -0.004,0.004 -0.007,0.008 -0.0117,0.0117 -0.002,0.002 -0.005,0.002 -0.008,0.004 -0.056,0.0373 0.0222,-0.011 -0.0312,0.0195 -0.008,0.005 -0.015,0.0114 -0.0234,0.0156 -0.006,0.003 -0.0131,0.005 -0.0195,0.008 -0.0106,0.005 -0.0208,0.0104 -0.0312,0.0156 -0.005,0.003 -0.0102,0.006 -0.0156,0.008 -0.005,0.002 -0.0107,0.002 -0.0156,0.004 -0.004,0.002 -0.008,0.006 -0.0117,0.008 -0.004,0.002 -0.008,0.003 -0.0117,0.004 -0.008,0.003 -0.0157,0.005 -0.0234,0.008 -0.007,0.002 -0.0127,0.006 -0.0195,0.008 -0.006,0.001 -0.0131,-0.001 -0.0195,0 -0.009,0.002 -0.0181,0.006 -0.0273,0.008 -0.0129,0.003 -0.0261,0.005 -0.0391,0.008 -0.0352,0.008 0.008,0 -0.0469,0.0117 -0.0155,0.003 -0.0314,0.005 -0.0469,0.008 -0.005,0.001 -0.0103,0.003 -0.0156,0.004 -0.0272,0.005 -0.055,0.006 -0.082,0.0117 -0.0697,0.0174 0.002,3.8e-4 -0.0547,0.0117 -0.021,0.004 -0.0416,0.0111 -0.0625,0.0156 -0.008,0.002 -0.0156,0.003 -0.0234,0.004 -0.008,0.001 -0.0156,0.003 -0.0234,0.004 -0.005,5.2e-4 -0.0104,-4.3e-4 -0.0156,0 -0.0123,10e-4 -0.0411,0.005 -0.0547,0.008 -0.0174,0.003 -0.0236,0.007 -0.043,0.0117 -0.008,0.002 -0.0157,0.002 -0.0234,0.004 -0.0105,0.002 -0.0207,0.006 -0.0312,0.008 -0.009,0.002 -0.0183,0.002 -0.0273,0.004 -0.0197,0.003 -0.0386,0.01 -0.0586,0.0117 -0.009,9.1e-4 -0.0182,0 -0.0273,0 -0.004,0 -0.008,-4.8e-4 -0.0117,0 -0.0116,-0.002 -0.0207,0.006 -0.0312,0.008 -0.004,6.4e-4 -0.008,-6.5e-4 -0.0117,0 -0.004,6.7e-4 -0.008,0.003 -0.0117,0.004 -0.005,0.001 -0.0103,0.003 -0.0156,0.004 -0.009,10e-4 -0.0183,-0.001 -0.0273,0 -0.005,6.6e-4 -0.0103,0.003 -0.0156,0.004 -0.004,5.6e-4 -0.008,-6.4e-4 -0.0117,0 -0.004,6.8e-4 -0.008,0.003 -0.0117,0.004 -0.003,5.1e-4 -0.005,0 -0.008,0 -0.005,0 -0.0105,-7.4e-4 -0.0156,0 -0.004,5.8e-4 -0.008,0.003 -0.0117,0.004 -0.005,10e-4 -0.0105,-0.001 -0.0156,0 -0.004,8.1e-4 -0.008,0.003 -0.0117,0.004 -0.006,0.001 -0.0168,0 -0.0234,0 -0.0195,0 -0.0391,0 -0.0586,0 -0.0234,0 -0.0469,0 -0.0703,0 -0.007,0 -0.013,0 -0.0195,0 -0.003,0 -0.005,0 -0.008,0 -0.001,0 -0.003,-5.8e-4 -0.004,0 -0.01,0.005 0.001,0.004 -0.008,0.004 -0.001,0 -0.003,0 -0.004,0 -10e-4,0 -0.003,-5.8e-4 -0.004,0 -0.002,8.2e-4 -0.002,0.003 -0.004,0.004 -0.001,5.8e-4 -0.003,-5.9e-4 -0.004,0 -0.002,8.2e-4 -0.002,0.003 -0.004,0.004 -0.002,0.001 -0.005,-0.001 -0.008,0 -0.002,8.3e-4 -0.002,0.003 -0.004,0.004 -0.002,7.7e-4 -0.0109,-8e-4 -0.0117,0 -9.2e-4,9.2e-4 -0.001,0.004 0,0.004 0.14552,0.0377 0.29167,0.0729 0.4375,0.10938"
       id="path4706"
       inkscape:connector-curvature="0" />
    <path
       style="fill:none;stroke:#000000;stroke-width:1.32000005;stroke-linecap:butt;stroke-linejoin:miter;stroke-miterlimit:4;stroke-dasharray:none;stroke-opacity:1"
       d="m 124,192 c -0.0547,0.0104 -0.10965,0.0195 -0.16406,0.0312 -0.006,10e-4 0.013,0 0.0195,0 0.005,0 0.0104,0 0.0156,0 0.0234,0 0.0469,0 0.0703,0 0.0182,0 0.0365,0 0.0547,0 0.008,0 0.0157,-6.5e-4 0.0234,0 0.008,6.6e-4 0.0156,0.003 0.0234,0.004 0.0221,0.003 0.0443,0.005 0.0664,0.008 0.0182,0.002 0.0364,0.006 0.0547,0.008 0.0102,0.001 0.0728,0.006 0.0859,0.008 0.11695,0.0195 -0.0896,-0.006 0.082,0.0156 0.0143,0.002 0.0287,0.002 0.043,0.004 0.0235,0.002 0.0469,0.005 0.0703,0.008 0.0401,0.005 0.10568,0.0149 0.14844,0.0195 0.0156,0.002 0.0313,0.002 0.0469,0.004 0.0209,0.002 0.0416,0.006 0.0625,0.008 0.0182,0.002 0.0365,0.002 0.0547,0.004 0.0447,0.004 0.0356,0.004 0.082,0.008 0.0221,0.002 0.0443,0.002 0.0664,0.004 0.0521,0.003 0.10402,0.01 0.15625,0.0117 0.0169,5.8e-4 0.0339,0 0.0508,0 0.0156,0 0.0312,0 0.0469,0 0.0143,0 0.0287,-10e-4 0.043,0 0.0222,0.002 0.0442,0.006 0.0664,0.008 0.0156,0.001 0.0312,0 0.0469,0 0.0365,0 0.0729,0 0.10937,0 0.11328,0 0.22656,0 0.33985,0 0.2513,0 0.5026,0 0.7539,0 0.13151,0 0.26302,0 0.39453,0 0.0182,0 0.0365,0 0.0547,0 8.1e-4,0 0.0117,2.2e-4 0.0117,0 0.008,-0.0506 0.013,-0.10156 0.0195,-0.15234"
       id="path4710"
       inkscape:connector-curvature="0" />
    <path
       style="fill:none;stroke:#000000;stroke-width:1.32000005;stroke-linecap:butt;stroke-linejoin:miter;stroke-miterlimit:4;stroke-dasharray:none;stroke-opacity:1"
       d="m 124,192 c -0.16146,0.0925 -0.32381,0.18335 -0.48437,0.27734 -0.002,9.3e-4 0.002,0.003 0.004,0.004 10e-4,5.8e-4 0.003,-9.2e-4 0.004,0 0.01,0.0191 -10e-4,0.003 0.008,0.008 0.002,8.3e-4 0.003,0.003 0.004,0.004 0.001,0.001 0.003,0.002 0.004,0.004 0.002,0.002 0.002,0.005 0.004,0.008 0.001,0.002 0.003,0.002 0.004,0.004 5.8e-4,0.001 -9.3e-4,0.003 0,0.004 9.2e-4,9.2e-4 0.003,-7.2e-4 0.004,0 0.0211,0.014 -0.003,10e-4 0.0117,0.0156 9.2e-4,9.3e-4 0.003,0 0.004,0 0.001,0.003 0.002,0.005 0.004,0.008 2.9e-4,3.8e-4 0.0135,0.0142 0.0156,0.0156 0.002,0.002 0.006,0.001 0.008,0.004 10e-4,0.002 -0.001,0.006 0,0.008 0.002,0.002 0.006,0.002 0.008,0.004 9.2e-4,9.2e-4 -7.2e-4,0.003 0,0.004 0.002,0.003 0.006,0.005 0.008,0.008 0.002,0.002 0.002,0.005 0.004,0.008 0.001,0.002 0.0144,0.0133 0.0156,0.0156 5.8e-4,10e-4 -9.2e-4,0.003 0,0.004 0.002,0.002 0.006,0.002 0.008,0.004 9.2e-4,9.2e-4 -9.2e-4,0.003 0,0.004 0.002,0.002 0.006,0.002 0.008,0.004 9.2e-4,9.2e-4 -5.8e-4,0.003 0,0.004 7.9e-4,0.002 0.0155,0.0155 0.0156,0.0156 0.004,0.004 0.008,0.008 0.0117,0.0117 0.003,0.003 0.006,0.005 0.008,0.008 0.003,0.004 0.004,0.009 0.008,0.0117 0.002,0.002 0.006,-0.001 0.008,0 0.002,0.002 0.001,0.006 0.004,0.008 0.002,0.001 0.006,-0.002 0.008,0 0.004,0.003 0.004,0.008 0.008,0.0117 9.2e-4,9.2e-4 0.003,-5.8e-4 0.004,0 0.005,0.002 0.007,0.009 0.0117,0.0117 0.001,5.8e-4 0.003,-5.8e-4 0.004,0 0.002,8.2e-4 0.002,0.003 0.004,0.004 0.005,0.003 0.0108,0.005 0.0156,0.008 0.002,10e-4 0.002,0.003 0.004,0.004 0.001,5.9e-4 0.003,-5.8e-4 0.004,0 0.003,0.002 0.005,0.006 0.008,0.008 0.001,5.8e-4 0.003,-5.8e-4 0.004,0 0.003,0.002 0.005,0.006 0.008,0.008 0.001,5.8e-4 0.003,-5.8e-4 0.004,0 0.002,8.2e-4 0.002,0.003 0.004,0.004 10e-4,5.8e-4 0.003,-5.9e-4 0.004,0 0.003,0.002 0.005,0.006 0.008,0.008 0.002,0.002 0.005,0.002 0.008,0.004 0.002,10e-4 0.002,0.003 0.004,0.004 0.002,8.2e-4 0.005,-8.2e-4 0.008,0 0.002,5.8e-4 0.003,0.003 0.004,0.004 0.003,0.001 0.005,0.003 0.008,0.004 0.003,6.4e-4 0.005,-8.2e-4 0.008,0 0.002,5.9e-4 0.003,0.003 0.004,0.004 0.003,0.001 0.005,0.003 0.008,0.004 0.003,6.3e-4 0.005,-6.4e-4 0.008,0 0.0156,0.004 5e-5,0.004 0.0156,0.0117 0.002,10e-4 0.005,-0.001 0.008,0 0.001,5.9e-4 -10e-4,0.003 0,0.004 0.002,0.001 0.005,-6.3e-4 0.008,0 0.003,7.1e-4 0.005,0.002 0.008,0.004 0.002,0.001 0.002,0.003 0.004,0.004 0.004,9.5e-4 0.008,-0.001 0.0117,0 0.001,4.2e-4 -5.8e-4,0.003 0,0.004 8.3e-4,0.002 0.002,0.003 0.004,0.004 0.002,8.2e-4 0.005,-8.3e-4 0.008,0 0.002,5.8e-4 0.002,0.003 0.004,0.004 0.002,8.3e-4 0.006,-0.001 0.008,0 0.002,0.002 0.002,0.006 0.004,0.008 0.002,0.002 0.006,-0.002 0.008,0 9.2e-4,9.3e-4 -5.8e-4,0.003 0,0.004 8.2e-4,0.002 0.003,0.003 0.004,0.004 10e-4,0.001 0.002,0.003 0.004,0.004 0.01,0.005 -0.004,-0.0113 0.0117,0.004 9.2e-4,9.2e-4 -9.2e-4,0.003 0,0.004 0.002,0.002 0.005,-0.001 0.008,0 0.002,8.2e-4 0.002,0.003 0.004,0.004 0.001,5.8e-4 0.003,-9.2e-4 0.004,0 0.008,0.008 -0.0124,-3.1e-4 0.004,0.008 0.001,5.9e-4 0.003,-5.8e-4 0.004,0 0.003,0.002 0.005,0.006 0.008,0.008 0.002,0.001 0.006,-10e-4 0.008,0 0.003,0.003 0.005,0.005 0.008,0.008 0.001,0 0.003,-5.8e-4 0.004,0 0.003,0.002 0.005,0.006 0.008,0.008 0.001,5.8e-4 0.003,-5.8e-4 0.004,0 0.002,8.3e-4 0.002,0.003 0.004,0.004 0.005,0.003 0.0108,0.005 0.0156,0.008 0.002,0.001 0.002,0.003 0.004,0.004 0.002,8.2e-4 0.005,-0.001 0.008,0 0.001,5.8e-4 -5.8e-4,0.003 0,0.004 8.2e-4,0.002 0.002,0.003 0.004,0.004 0.001,5.8e-4 0.003,-4.1e-4 0.004,0 0.0283,0.009 -0.006,-0.001 0.0117,0.008 10e-4,5.8e-4 0.003,-5.8e-4 0.004,0 0.0179,0.009 -0.0166,-0.002 0.0117,0.008 0.001,4.2e-4 0.003,-5.8e-4 0.004,0 0.0163,0.008 -0.004,-2.6e-4 0.004,0.008 7.7e-4,7.7e-4 0.022,0.0114 0.0234,0.0117 0.003,6.3e-4 0.005,-8.3e-4 0.008,0 0.003,0.001 0.004,0.007 0.008,0.008 0.002,8.2e-4 0.005,-8.2e-4 0.008,0 0.002,5.8e-4 0.002,0.003 0.004,0.004 0.002,0.002 0.005,0.002 0.008,0.004 0.002,0.001 0.002,0.003 0.004,0.004 0.005,0.003 0.0108,0.005 0.0156,0.008 0.002,0.001 0.002,0.003 0.004,0.004 10e-4,5.8e-4 0.003,-3.2e-4 0.004,0 0.004,9.9e-4 0.008,0.002 0.0117,0.004 0.002,8.3e-4 0.002,0.003 0.004,0.004 0.002,0.001 0.005,-0.001 0.008,0 0.003,0.002 0.005,0.006 0.008,0.008 0.001,5.8e-4 0.003,-5.8e-4 0.004,0 0.002,8.2e-4 0.002,0.003 0.004,0.004 0.004,0.002 0.008,0.002 0.0117,0.004 0.002,8.3e-4 0.002,0.003 0.004,0.004 10e-4,5.8e-4 0.003,-4.1e-4 0.004,0 0.003,9.2e-4 0.005,0.003 0.008,0.004 10e-4,4.1e-4 0.003,-5.9e-4 0.004,0 0.003,0.002 0.004,0.007 0.008,0.008 2e-5,0 0.0117,0 0.0117,0 9.2e-4,9.2e-4 -9.2e-4,0.003 0,0.004 9.2e-4,9.3e-4 0.003,-4.1e-4 0.004,0 0.0283,0.009 -0.006,-0.001 0.0117,0.008 0.002,0.001 0.006,-0.001 0.008,0 0.003,0.002 0.005,0.005 0.008,0.008 0.001,10e-4 0.002,0.003 0.004,0.004 0.002,0.001 0.005,-8.3e-4 0.008,0 0.0283,0.009 -0.006,-0.001 0.0117,0.008 0.004,0.002 0.008,0.003 0.0117,0.004 0.003,6.4e-4 0.006,-0.001 0.008,0 0.003,0.002 0.005,0.006 0.008,0.008 0.002,10e-4 0.005,-0.001 0.008,0 0.002,8.2e-4 0.002,0.003 0.004,0.004 0.001,5.9e-4 0.003,0 0.004,0 0.003,0 0.005,-8.2e-4 0.008,0 0.002,5.9e-4 0.002,0.003 0.004,0.004 0.001,5.8e-4 0.003,0 0.004,0 0.003,0 0.005,-8.2e-4 0.008,0 0.002,5.8e-4 0.002,0.003 0.004,0.004 10e-4,5.8e-4 0.003,-4.2e-4 0.004,0 0.003,9.2e-4 0.005,0.003 0.008,0.004 0.001,4.1e-4 0.003,-3.1e-4 0.004,0 0.004,0.001 0.008,0.003 0.0117,0.004 0.003,5.1e-4 0.005,-6.3e-4 0.008,0 0.006,0.001 0.01,0.006 0.0156,0.008 0.003,6.3e-4 0.005,-6.3e-4 0.008,0 0.006,0.001 0.0101,0.006 0.0156,0.008 10e-4,4.2e-4 0.003,-4.1e-4 0.004,0 0.003,9.2e-4 0.005,0.003 0.008,0.004 0.006,0.001 0.0173,-0.001 0.0234,0 0.0203,0.004 0.004,0.003 0.0195,0.008 0.004,0.001 0.008,-7.6e-4 0.0117,0 0.004,8.1e-4 0.008,0.003 0.0117,0.004 0.004,7.6e-4 0.008,-0.001 0.0117,0 0.0263,0.009 0.0121,0.008 0.0391,0.0117 0.006,8.3e-4 0.0171,0 0.0234,0 0.003,0 0.005,-6.3e-4 0.008,0 0.003,7e-4 0.005,0.003 0.008,0.004 0.0278,0.007 -0.0198,-0.0118 0.0195,0.004 0.003,0.001 0.005,0.003 0.008,0.004 0.003,6.3e-4 0.005,-5.1e-4 0.008,0 0.004,8e-4 0.008,0.003 0.0117,0.004 0.005,0.001 0.0147,-10e-4 0.0195,0 0.004,0.001 0.008,0.003 0.0117,0.004 10e-4,3.1e-4 0.003,-3.2e-4 0.004,0 0.004,0.001 0.008,0.003 0.0117,0.004 0.004,7.7e-4 0.008,-9.4e-4 0.0117,0 0.008,0.002 0.0154,0.006 0.0234,0.008 0.003,5.1e-4 0.005,-6.3e-4 0.008,0 0.003,7e-4 0.005,0.003 0.008,0.004 0.003,6.4e-4 0.005,0 0.008,0 0.005,0 0.0275,-7.5e-4 0.0312,0 0.006,0.001 0.01,0.006 0.0156,0.008 0.005,0.001 0.0106,-0.001 0.0156,0 0.003,7e-4 0.005,0.003 0.008,0.004 0.005,0.001 0.0172,0 0.0234,0 0.0156,0 0.0312,0 0.0469,0 0.005,0 0.0208,-8.8e-4 0.0234,0 10e-4,4.1e-4 -9.2e-4,0.003 0,0.004 9.2e-4,9.2e-4 0.003,0 0.004,0 0.001,0 0.003,0 0.004,0 0.0182,0 0.0365,0 0.0547,0 0.0365,0 0.0729,0 0.10938,0 0.0482,0 0.0964,0 0.14453,0 0.0143,0 0.0286,0 0.043,0 0.008,0 0.0157,0.001 0.0234,0 0.003,-4.8e-4 0.005,-0.003 0.008,-0.004 0.004,-7.6e-4 0.008,7.7e-4 0.0117,0 0.006,-0.001 0.0101,-0.006 0.0156,-0.008 0.005,-0.002 0.0103,-0.003 0.0156,-0.004 0.0374,0 -0.009,0.002 0.0195,-0.004 0.004,-7.7e-4 0.008,6.4e-4 0.0117,0 0.008,-0.001 0.0154,-0.006 0.0234,-0.008 0.003,-5.1e-4 0.005,6.4e-4 0.008,0 0.0111,-0.003 0.007,-0.008 0.0195,-0.0117 0.004,-0.001 0.008,0.001 0.0117,0 0.003,-0.001 0.005,-0.006 0.008,-0.008 0.002,-0.002 0.005,-0.003 0.008,-0.004 0.004,-0.002 0.008,-0.002 0.0117,-0.004 0.003,-10e-4 0.005,-0.003 0.008,-0.004 0.004,-0.002 0.008,-0.002 0.0117,-0.004 0.003,-0.001 0.005,-0.003 0.008,-0.004 0.004,-0.002 0.008,-0.002 0.0117,-0.004 0.003,-0.002 0.005,-0.006 0.008,-0.008 0.002,-10e-4 0.005,6.4e-4 0.008,0 0.005,-10e-4 0.0165,-0.01 0.0195,-0.0117 0.005,-0.003 0.0102,-0.006 0.0156,-0.008 0.008,-0.003 0.0158,-0.005 0.0234,-0.008 0.005,-0.002 0.01,-0.006 0.0156,-0.008 0.003,-6.3e-4 0.005,9.6e-4 0.008,0 0.004,-0.002 0.008,-0.005 0.0117,-0.008 0.005,-0.003 0.0104,-0.005 0.0156,-0.008 0.003,-0.001 0.005,-0.003 0.008,-0.004 0.005,-0.002 0.0108,-0.002 0.0156,-0.004 0.003,-0.002 0.005,-0.006 0.008,-0.008 0.0166,-0.0125 -8.7e-4,0.003 0.0156,-0.004 0.004,-0.002 0.008,-0.005 0.0117,-0.008 0.005,-0.003 0.0104,-0.005 0.0156,-0.008 0.003,-0.001 0.005,-0.002 0.008,-0.004 0.003,-0.002 0.005,-0.006 0.008,-0.008 1.3e-4,-8e-5 0.0229,-0.008 0.0234,-0.008 0.026,-0.0104 -0.009,0.004 0.0117,-0.0117 0.003,-0.002 0.008,-0.002 0.0117,-0.004 0.004,-0.002 0.008,-0.005 0.0117,-0.008 0.002,-0.001 0.005,-0.002 0.008,-0.004 0.003,-0.002 0.005,-0.006 0.008,-0.008 0.002,-0.002 0.006,-0.002 0.008,-0.004 0.004,-0.003 0.007,-0.008 0.0117,-0.0117 0.002,-0.002 0.005,-0.002 0.008,-0.004 0.003,-0.002 0.005,-0.006 0.008,-0.008 0.004,-0.002 0.009,-10e-4 0.0117,-0.004 0.004,-0.003 0.004,-0.008 0.008,-0.0117 0.002,-0.002 0.005,-0.002 0.008,-0.004 0.003,-0.002 0.005,-0.005 0.008,-0.008 0.005,-0.005 0.0104,-0.0104 0.0156,-0.0156 0.003,-0.003 0.005,-0.006 0.008,-0.008 0.004,-0.003 0.008,-0.005 0.0117,-0.008 0.007,-0.005 0.0103,-0.0131 0.0156,-0.0195 0.006,-0.007 0.0133,-0.0133 0.0195,-0.0195 0.009,-0.009 0.0182,-0.0182 0.0273,-0.0273 0.004,-0.004 0.008,-0.007 0.0117,-0.0117 0.004,-0.005 0.005,-0.0108 0.008,-0.0156 10e-4,-0.002 0.003,-0.003 0.004,-0.004 0.003,-0.004 0.005,-0.008 0.008,-0.0117 10e-4,-0.002 0.002,-0.006 0.004,-0.008 0.002,-0.002 0.006,-0.001 0.008,-0.004 10e-4,-0.002 -0.001,-0.005 0,-0.008 0.002,-0.003 0.006,-0.005 0.008,-0.008 0.003,-0.005 0.004,-0.0115 0.008,-0.0156 9.2e-4,-9.2e-4 0.003,9.2e-4 0.004,0 9.2e-4,-9.2e-4 -4.2e-4,-0.003 0,-0.004 9.2e-4,-0.003 0.002,-0.005 0.004,-0.008 0.001,-0.002 0.003,-0.002 0.004,-0.004 8.2e-4,-0.002 -6.3e-4,-0.005 0,-0.008 0.005,-0.0189 0.002,1.9e-4 0.008,-0.0117 5.8e-4,-0.001 -4.1e-4,-0.003 0,-0.004 0.002,-0.006 0.006,-0.0101 0.008,-0.0156 8.3e-4,-0.002 -0.001,-0.005 0,-0.008 8.3e-4,-0.002 0.003,-0.002 0.004,-0.004 5.8e-4,-0.001 0,-0.003 0,-0.004 0.001,-0.003 0.002,-0.005 0.004,-0.008 0.001,-0.002 0.003,-0.002 0.004,-0.004 10e-4,-0.002 -0.001,-0.005 0,-0.008 8.2e-4,-0.002 0.003,-0.002 0.004,-0.004 0.002,-0.003 -0.002,-0.009 0,-0.0117 0.008,-0.0163 -2.7e-4,0.004 0.008,-0.004 0.002,-0.002 -0.001,-0.005 0,-0.008 8.2e-4,-0.002 0.003,-0.002 0.004,-0.004 0.001,-0.002 -10e-4,-0.0132 0,-0.0156 8.2e-4,-0.002 0.003,-0.002 0.004,-0.004 0.001,-0.003 -0.001,-0.0198 0,-0.0234 9.2e-4,-0.003 0.003,-0.005 0.004,-0.008 7.8e-4,-0.002 0,-0.0197 0,-0.0234 0,-0.0169 0,-0.0339 0,-0.0508 0,-0.008 0,-0.0156 0,-0.0234 0,-10e-4 -9.2e-4,-0.003 0,-0.004 9.2e-4,-9.2e-4 0.003,9.2e-4 0.004,0 1.2e-4,-1.3e-4 0,-0.0108 0,-0.0117 0,-0.0104 0,-0.0208 0,-0.0312 0,-0.001 -9.3e-4,-0.003 0,-0.004 9.2e-4,-9.2e-4 0.003,9.3e-4 0.004,0 9.2e-4,-9.2e-4 0,-0.003 0,-0.004 0,-0.002 -5.9e-4,-0.0177 0,-0.0195 5.8e-4,-0.002 0.003,-0.002 0.004,-0.004 5.8e-4,-0.001 -4.1e-4,-0.003 0,-0.004 9.2e-4,-0.003 0.003,-0.005 0.004,-0.008 7.7e-4,-0.002 0,-0.0173 0,-0.0195 0,-0.001 0,-0.003 0,-0.004 0,-10e-4 -5.8e-4,-0.003 0,-0.004 8.3e-4,-0.002 0.003,-0.002 0.004,-0.004 0.001,-0.002 -4.8e-4,-0.0137 0,-0.0156 7.1e-4,-0.003 0.003,-0.005 0.004,-0.008 8.2e-4,-0.002 0,-0.016 0,-0.0195 0,-0.001 0,-0.003 0,-0.004 0,-0.001 10e-4,-0.003 0,-0.004 -0.053,-0.0181 -0.10677,-0.0339 -0.16016,-0.0508"
       id="path4716"
       inkscape:connector-curvature="0" />
  </g>
  <g
     inkscape:groupmode="layer"
     id="g4732"
     inkscape:label="TopRight"
     style="display:inline">
    <path
       style="fill:none;stroke:#000000;stroke-width:6.5999999;stroke-linecap:butt;stroke-linejoin:miter;stroke-miterlimit:4;stroke-dasharray:none;stroke-opacity:1"
       d="m 170,101 c 0,0 78.94241,-15.2491 75.27146,-36.142354 C 241.60056,43.964481 187.10265,-4.914579 160,86"
       id="path4730"
       inkscape:connector-curvature="0"
       sodipodi:nodetypes="csc" />
  </g>
  <g
     style="display:inline"
     inkscape:label="TopLeft"
     id="g868"
     inkscape:groupmode="layer">
    <path
       sodipodi:nodetypes="csc"
       inkscape:connector-curvature="0"
       id="path866"
       d="M 80,101 C 80,101 6.58393,85.7509 10.25488,64.857646 13.92578,43.964481 68.42369,-4.914579 95.52634,86"
       style="fill:none;stroke:#000000;stroke-width:6.5999999;stroke-linecap:butt;stroke-linejoin:miter;stroke-miterlimit:4;stroke-dasharray:none;stroke-opacity:1" />
  </g>
</svg>
