<?xml version="1.0" encoding="UTF-8" standalone="no"?>
<!-- Created with Inkscape (http://www.inkscape.org/) -->

<svg
   xmlns:dc="http://purl.org/dc/elements/1.1/"
   xmlns:cc="http://creativecommons.org/ns#"
   xmlns:rdf="http://www.w3.org/1999/02/22-rdf-syntax-ns#"
   xmlns:svg="http://www.w3.org/2000/svg"
   xmlns="http://www.w3.org/2000/svg"
   xmlns:sodipodi="http://sodipodi.sourceforge.net/DTD/sodipodi-0.dtd"
   xmlns:inkscape="http://www.inkscape.org/namespaces/inkscape"
   width="250"
   height="250"
   viewBox="0 0 250 250"
   version="1.1"
   id="SVGRoot"
   sodipodi:docname="HeartShine1.svg"
   inkscape:version="0.92.4 (5da689c313, 2019-01-14)">
  <defs
     id="defs3737" />
  <sodipodi:namedview
     id="base"
     pagecolor="#ffffff"
     bordercolor="#666666"
     borderopacity="1.0"
     inkscape:pageopacity="0.0"
     inkscape:pageshadow="2"
     inkscape:zoom="2.8284271"
     inkscape:cx="124.98017"
     inkscape:cy="127.05466"
     inkscape:document-units="px"
     inkscape:current-layer="g2695"
     showgrid="true"
     inkscape:window-width="1290"
     inkscape:window-height="1008"
     inkscape:window-x="-7"
     inkscape:window-y="0"
     inkscape:window-maximized="0"
     inkscape:grid-bbox="true"
     objecttolerance="10000"
     inkscape:lockguides="true">
    <inkscape:grid
       type="xygrid"
       id="grid3785" />
  </sodipodi:namedview>
  <metadata
     id="metadata3740">
    <rdf:RDF>
      <cc:Work
         rdf:about="">
        <dc:format>image/svg+xml</dc:format>
        <dc:type
           rdf:resource="http://purl.org/dc/dcmitype/StillImage" />
        <dc:title></dc:title>
      </cc:Work>
    </rdf:RDF>
  </metadata>
  <g
     inkscape:label="Layer 1 copy"
     id="g2678"
     inkscape:groupmode="layer" />
  <g
     inkscape:groupmode="layer"
     id="g2695"
     inkscape:label="Layer 1 copy copy 1">
    <g
       id="g2703"
       transform="matrix(0.95833334,0,0,0.95833334,5.2083325,12.916665)"
       style="fill:#ff2a2a;stroke-width:4.17391301;stroke-miterlimit:4;stroke-dasharray:none">
      <g
         id="g2683"
         style="fill:#ff2a2a;stroke-width:4.17391301;stroke-miterlimit:4;stroke-dasharray:none">
        <path
           sodipodi:nodetypes="ccc"
           style="fill:#ff2a2a;stroke:#000000;stroke-width:4.17391301;stroke-linecap:butt;stroke-linejoin:miter;stroke-opacity:1;stroke-miterlimit:4;stroke-dasharray:none"
           d="m 125,70 c 0,0 5,-35 50,-35 80,5 2.70455,151.594 -50,155"
           id="path2674"
           inkscape:connector-curvature="0" />
      </g>
      <g
         transform="matrix(-1,0,0,1,250.47843,0)"
         id="g2693"
         style="fill:#ff2a2a;stroke-width:4.17391301;stroke-miterlimit:4;stroke-dasharray:none">
        <path
           inkscape:connector-curvature="0"
           id="path2691"
           d="m 125,70 c 0,0 5,-35 50,-35 80,5 2.70455,151.594 -50,155"
           style="fill:#ff2a2a;stroke:#000000;stroke-width:4.17391301;stroke-linecap:butt;stroke-linejoin:miter;stroke-opacity:1;stroke-miterlimit:4;stroke-dasharray:none"
           sodipodi:nodetypes="ccc" />
      </g>
    </g>
    <path
       style="fill:#ff2a2a;fill-opacity:1;stroke:#000000;stroke-width:1.41421354;stroke-linecap:round;stroke-linejoin:round;stroke-miterlimit:4;stroke-dasharray:none;stroke-opacity:1"
       d="m 223.38284,23.596794 c -1.80394,3.095466 -6.40543,8.396588 -13.23499,15.247327 -5.63653,5.654009 -5.21113,5.410513 -6.57648,3.764355 l -1.12148,-1.352134 2.23383,-2.119168 c 4.68931,-4.448611 11.9786,-12.390121 14.10574,-15.367866 l 2.21721,-3.103834 1.65482,0.286205 c 1.85305,0.320548 1.92413,0.581183 0.72136,2.645067 z"
       id="path4465"
       inkscape:connector-curvature="0" />
    <path
       style="fill:#ff2a2a;fill-opacity:1;stroke:#000000;stroke-width:1.41421354;stroke-linecap:round;stroke-linejoin:round;stroke-miterlimit:4;stroke-dasharray:none;stroke-opacity:1"
       d="m 224.24606,51.272705 -10.89322,5.520951 -0.78533,-1.378881 c -0.43193,-0.758386 -0.769,-1.496114 -0.74905,-1.639398 0.02,-0.143279 4.93225,-2.741913 10.91621,-5.774732 l 10.87994,-5.514216 0.52218,0.970487 c 1.25817,2.338326 1.8689,1.855718 -9.89073,7.815789 z"
       id="path4467"
       inkscape:connector-curvature="0" />
    <path
       style="fill:#ff2a2a;fill-opacity:1;stroke:#000000;stroke-width:1.41421354;stroke-linecap:round;stroke-linejoin:round;stroke-miterlimit:4;stroke-dasharray:none;stroke-opacity:1"
       d="m 195.00001,30.000002 c -1.9143,3.512813 -3.5366,6.433539 -3.60511,6.490501 -0.17337,0.14415 -2.57684,-1.142042 -2.88438,-1.543546 -0.13842,-0.180699 1.35882,-3.302853 3.32718,-6.93812 3.43862,-6.350625 3.60942,-6.595901 4.35947,-6.260556 1.39588,0.624094 2.43515,1.3291 2.35843,1.599881 -0.0413,0.145699 -1.6413,3.139027 -3.55559,6.65184 z"
       id="path4469"
       inkscape:connector-curvature="0" />
    <path
       style="fill:#ff2a2a;fill-opacity:1;stroke:#000000;stroke-width:1.41421354;stroke-linecap:round;stroke-linejoin:round;stroke-miterlimit:4;stroke-dasharray:none;stroke-opacity:1"
       d="m 60,210 -7.404224,13.64453 -1.636979,-0.86065 c -0.900339,-0.47336 -1.548008,-1.01452 -1.439269,-1.20259 0.108708,-0.18806 3.382328,-6.24252 7.274624,-13.45436 3.892308,-7.21185 7.223299,-13.22525 7.402204,-13.3631 0.310199,-0.23902 2.652413,0.79271 3.028874,1.3342 C 67.32368,196.23963 64.072319,202.49551 60,210 Z"
       id="path4471"
       inkscape:connector-curvature="0" />
    <path
       style="fill:#ff2a2a;fill-opacity:1;stroke:#000000;stroke-width:1.41421354;stroke-linecap:round;stroke-linejoin:round;stroke-miterlimit:4;stroke-dasharray:none;stroke-opacity:1"
       d="m 40,195 -8.502409,5.94806 -1.057196,-1.54874 -1.057202,-1.54876 8.50241,-5.94806 8.502422,-5.94806 1.057203,1.54875 1.057194,1.54875 z"
       id="path4473"
       inkscape:connector-curvature="0" />
    <path
       style="fill:#ff2a2a;fill-opacity:1;stroke:#000000;stroke-width:1.41421354;stroke-linecap:round;stroke-linejoin:round;stroke-miterlimit:4;stroke-dasharray:none;stroke-opacity:1"
       d="m 30,175 c -6.401652,1.32484 -12.189779,2.52948 -12.862488,2.67695 l -1.223125,0.26815 -0.409884,-1.74723 c -0.225443,-0.96097 -0.359423,-1.78134 -0.297744,-1.82305 0.169344,-0.11449 24.62182,-5.2217 25.33443,-5.29141 0.444318,-0.0435 0.70714,0.33207 0.931969,1.33166 0.172233,0.76571 0.280085,1.56857 0.239675,1.78416 C 41.672783,172.41487 36.401652,173.67516 30,175 Z"
       id="path4475"
       inkscape:connector-curvature="0" />
  </g>
  <g
     inkscape:groupmode="layer"
     id="g2689"
     inkscape:label="Layer 1 copy copy" />
</svg>
