<?xml version="1.0" encoding="UTF-8" standalone="no"?>
<!-- Created with Inkscape (http://www.inkscape.org/) -->

<svg
   xmlns:dc="http://purl.org/dc/elements/1.1/"
   xmlns:cc="http://creativecommons.org/ns#"
   xmlns:rdf="http://www.w3.org/1999/02/22-rdf-syntax-ns#"
   xmlns:svg="http://www.w3.org/2000/svg"
   xmlns="http://www.w3.org/2000/svg"
   xmlns:sodipodi="http://sodipodi.sourceforge.net/DTD/sodipodi-0.dtd"
   xmlns:inkscape="http://www.inkscape.org/namespaces/inkscape"
   width="250"
   height="250"
   viewBox="0 0 250 250"
   version="1.1"
   id="SVGRoot"
   sodipodi:docname="HeartShine2.svg"
   inkscape:version="0.92.4 (5da689c313, 2019-01-14)">
  <defs
     id="defs3737" />
  <sodipodi:namedview
     id="base"
     pagecolor="#ffffff"
     bordercolor="#666666"
     borderopacity="1.0"
     inkscape:pageopacity="0.0"
     inkscape:pageshadow="2"
     inkscape:zoom="2.8284271"
     inkscape:cx="127.8086"
     inkscape:cy="127.05466"
     inkscape:document-units="px"
     inkscape:current-layer="g2695"
     showgrid="true"
     inkscape:window-width="1290"
     inkscape:window-height="1008"
     inkscape:window-x="-7"
     inkscape:window-y="0"
     inkscape:window-maximized="0"
     inkscape:grid-bbox="true"
     objecttolerance="10000"
     inkscape:lockguides="true">
    <inkscape:grid
       type="xygrid"
       id="grid3785" />
  </sodipodi:namedview>
  <metadata
     id="metadata3740">
    <rdf:RDF>
      <cc:Work
         rdf:about="">
        <dc:format>image/svg+xml</dc:format>
        <dc:type
           rdf:resource="http://purl.org/dc/dcmitype/StillImage" />
        <dc:title></dc:title>
      </cc:Work>
    </rdf:RDF>
  </metadata>
  <g
     inkscape:label="Layer 1 copy"
     id="g2678"
     inkscape:groupmode="layer" />
  <g
     inkscape:groupmode="layer"
     id="g2695"
     inkscape:label="Layer 1 copy copy 1">
    <g
       id="g2703"
       transform="matrix(0.95833334,0,0,0.95833334,5.2083325,12.916665)"
       style="fill:#ff2a2a;stroke-width:4.17391301;stroke-miterlimit:4;stroke-dasharray:none">
      <g
         id="g2683"
         style="fill:#ff2a2a;stroke-width:4.17391301;stroke-miterlimit:4;stroke-dasharray:none">
        <path
           sodipodi:nodetypes="ccc"
           style="fill:#ff2a2a;stroke:#000000;stroke-width:4.17391301;stroke-linecap:butt;stroke-linejoin:miter;stroke-opacity:1;stroke-miterlimit:4;stroke-dasharray:none"
           d="m 125,70 c 0,0 5,-35 50,-35 80,5 2.70455,151.594 -50,155"
           id="path2674"
           inkscape:connector-curvature="0" />
      </g>
      <g
         transform="matrix(-1,0,0,1,250.47843,0)"
         id="g2693"
         style="fill:#ff2a2a;stroke-width:4.17391301;stroke-miterlimit:4;stroke-dasharray:none">
        <path
           inkscape:connector-curvature="0"
           id="path2691"
           d="m 125,70 c 0,0 5,-35 50,-35 80,5 2.70455,151.594 -50,155"
           style="fill:#ff2a2a;stroke:#000000;stroke-width:4.17391301;stroke-linecap:butt;stroke-linejoin:miter;stroke-opacity:1;stroke-miterlimit:4;stroke-dasharray:none"
           sodipodi:nodetypes="ccc" />
      </g>
    </g>
    <g
       id="g4463"
       style="stroke-width:4;stroke-miterlimit:4;stroke-dasharray:none">
      <path
         inkscape:connector-curvature="0"
         id="path4441"
         d="M 40,45 25,25"
         style="fill:none;stroke:#000000;stroke-width:4;stroke-linecap:butt;stroke-linejoin:miter;stroke-opacity:1;stroke-miterlimit:4;stroke-dasharray:none" />
      <path
         inkscape:connector-curvature="0"
         id="path4443"
         d="M 30,55 C 25,55 5,40 5,40"
         style="fill:none;stroke:#000000;stroke-width:4;stroke-linecap:butt;stroke-linejoin:miter;stroke-opacity:1;stroke-miterlimit:4;stroke-dasharray:none" />
      <path
         inkscape:connector-curvature="0"
         id="path4445"
         d="M 25,70 10,65"
         style="fill:none;stroke:#000000;stroke-width:4;stroke-linecap:butt;stroke-linejoin:miter;stroke-opacity:1;stroke-miterlimit:4;stroke-dasharray:none" />
      <path
         inkscape:connector-curvature="0"
         id="path4449"
         d="m 180,175 10,25"
         style="fill:none;stroke:#000000;stroke-width:4;stroke-linecap:butt;stroke-linejoin:miter;stroke-opacity:1;stroke-miterlimit:4;stroke-dasharray:none" />
      <path
         inkscape:connector-curvature="0"
         id="path4453"
         d="m 195,170 15,15"
         style="fill:none;stroke:#000000;stroke-width:4;stroke-linecap:butt;stroke-linejoin:miter;stroke-opacity:1;stroke-miterlimit:4;stroke-dasharray:none" />
      <path
         inkscape:connector-curvature="0"
         id="path4455"
         d="M 235,160 205,150"
         style="fill:none;stroke:#000000;stroke-width:4;stroke-linecap:butt;stroke-linejoin:miter;stroke-opacity:1;stroke-miterlimit:4;stroke-dasharray:none" />
    </g>
    <path
       style="fill:#ff2a2a;fill-opacity:1;stroke:#000000;stroke-width:1.41421354;stroke-linecap:round;stroke-linejoin:round;stroke-miterlimit:4;stroke-dasharray:none;stroke-opacity:1"
       d="M 27.389235,56.25048 C 24.027544,55.011463 18.007919,51.400419 10.075317,45.864231 3.528431,41.295138 3.842098,41.671791 5.2261569,40.041335 L 6.3630061,38.702098 8.8378799,40.534 c 5.1953161,3.845573 14.2819491,9.645095 17.5838291,11.222838 l 3.441694,1.644549 0.0055,1.679379 c 0.0061,1.88056 -0.238232,1.995822 -2.47962,1.169714 z"
       id="path4465"
       inkscape:connector-curvature="0" />
    <path
       style="fill:#ff2a2a;fill-opacity:1;stroke:#000000;stroke-width:1.41421354;stroke-linecap:round;stroke-linejoin:round;stroke-miterlimit:4;stroke-dasharray:none;stroke-opacity:1"
       d="m 31.047534,36.046953 -7.328663,-9.769026 1.221562,-1.012836 c 0.67186,-0.557061 1.339849,-1.017117 1.484421,-1.022348 0.144572,-0.0052 3.556733,4.381188 7.582581,9.747597 l 7.319723,9.757109 -0.865067,0.682775 c -2.084322,1.645104 -1.502994,2.162753 -9.414557,-8.383271 z"
       id="path4467"
       inkscape:connector-curvature="0" />
    <path
       style="fill:#ff2a2a;fill-opacity:1;stroke:#000000;stroke-width:1.41421354;stroke-linecap:round;stroke-linejoin:round;stroke-miterlimit:4;stroke-dasharray:none;stroke-opacity:1"
       d="m 16.792831,69.234975 c -3.79186,-1.275224 -6.9499223,-2.365697 -7.0179161,-2.423273 -0.1720651,-0.145703 0.6772281,-2.736006 1.0192281,-3.108598 0.153919,-0.167687 3.488632,0.764642 7.410474,2.071843 6.851256,2.283612 7.122464,2.409222 6.922459,3.206108 -0.372221,1.483046 -0.886049,2.628951 -1.166038,2.60042 -0.150653,-0.01535 -3.376347,-1.071277 -7.168207,-2.3465 z"
       id="path4469"
       inkscape:connector-curvature="0" />
    <path
       style="fill:#ff2a2a;fill-opacity:1;stroke:#000000;stroke-width:1.41421354;stroke-linecap:round;stroke-linejoin:round;stroke-miterlimit:4;stroke-dasharray:none;stroke-opacity:1"
       d="m 219.32843,156.75473 -14.72297,-4.92239 0.56332,-1.76156 c 0.30983,-0.96886 0.7303,-1.70066 0.93439,-1.62623 0.20408,0.0744 6.73502,2.24694 14.51319,4.82778 7.77818,2.58085 14.27864,4.81702 14.44546,4.96927 0.28926,0.26398 -0.32008,2.74977 -0.78797,3.21454 -0.12235,0.12154 -6.84779,-1.9941 -14.94542,-4.70141 z"
       id="path4471"
       inkscape:connector-curvature="0" />
    <path
       style="fill:#ff2a2a;fill-opacity:1;stroke:#000000;stroke-width:1.41421354;stroke-linecap:round;stroke-linejoin:round;stroke-miterlimit:4;stroke-dasharray:none;stroke-opacity:1"
       d="m 201.2435,178.8087 -7.33412,-7.34037 1.34163,-1.31007 1.34164,-1.31008 7.33413,7.34037 7.33412,7.34037 -1.34163,1.31008 -1.34164,1.31007 z"
       id="path4473"
       inkscape:connector-curvature="0" />
    <path
       style="fill:#ff2a2a;fill-opacity:1;stroke:#000000;stroke-width:1.41421354;stroke-linecap:round;stroke-linejoin:round;stroke-miterlimit:4;stroke-dasharray:none;stroke-opacity:1"
       d="m 183.69608,189.24999 c -2.41635,-6.07434 -4.60778,-11.56535 -4.86983,-12.20223 l -0.47647,-1.15798 1.64951,-0.70706 c 0.90723,-0.38889 1.69187,-0.66329 1.74365,-0.60979 0.14216,0.14689 9.41791,23.34102 9.6103,24.0307 0.11996,0.43002 -0.20423,0.75406 -1.14959,1.14905 -0.72417,0.30258 -1.49611,0.54821 -1.71544,0.54585 -0.21932,-0.002 -2.37578,-4.9742 -4.79213,-11.04854 z"
       id="path4475"
       inkscape:connector-curvature="0" />
  </g>
  <g
     inkscape:groupmode="layer"
     id="g2689"
     inkscape:label="Layer 1 copy copy" />
</svg>
